# xmcd
#
# Track frame offsets:
#	150
#	18040
#	36049
#	53038
#	70215
#	85840
#	107766
#	133210
#	152242
#	170129
#	183752
#	205437
#
# Disc length: 2919 seconds
# Revision: 0
# Processed by: cddbd v1.5.2PL0 Copyright (c) Steve Scherf et al.
# Submitted via: dBpowerAMP V12.0
#
DISCID=a00b650c
DTITLE=Vanessa Carlton - Best of Vanessa Carlton
DYEAR=2011
DGENRE=Pop
TTITLE0=A Thousand Miles
TTITLE1=Ordinary Day
TTITLE2=White Houses
TTITLE3=Heroes and Thieves
TTITLE4=Nolita Fairytale
TTITLE5=Who's To Say
TTITLE6=Home
TTITLE7=San Francisco
TTITLE8=Pretty Baby
TTITLE9=Hands On Me
TTITLE10=Twilight
TTITLE11=Private Radio
EXTD=
EXTT0=
EXTT1=
EXTT2=
EXTT3=
EXTT4=
EXTT5=
EXTT6=
EXTT7=
EXTT8=
EXTT9=
EXTT10=
EXTT11=
PLAYORDER=
